<svg width="114" height="31" viewBox="0 0 114 31" fill="none" xmlns="http://www.w3.org/2000/svg">
<rect y="3" width="111" height="28" fill="#999999"/>
<rect x="3" width="111" height="28" fill="black"/>
<path d="M18.7578 10.2656V19H16.375V10.2656H18.7578ZM17.5703 6.84375C17.9245 6.84375 18.2292 6.92708 18.4844 7.09375C18.7396 7.25521 18.8672 7.5599 18.8672 8.00781C18.8672 8.45052 18.7396 8.75781 18.4844 8.92969C18.2292 9.09635 17.9245 9.17969 17.5703 9.17969C17.2109 9.17969 16.9036 9.09635 16.6484 8.92969C16.3984 8.75781 16.2734 8.45052 16.2734 8.00781C16.2734 7.5599 16.3984 7.25521 16.6484 7.09375C16.9036 6.92708 17.2109 6.84375 17.5703 6.84375ZM26.2266 10.1016C27.1589 10.1016 27.9089 10.3568 28.4766 10.8672C29.0443 11.3724 29.3281 12.1849 29.3281 13.3047V19H26.9453V13.8984C26.9453 13.2734 26.8307 12.8021 26.6016 12.4844C26.3776 12.1667 26.0234 12.0078 25.5391 12.0078C24.8099 12.0078 24.3125 12.2552 24.0469 12.75C23.7812 13.2448 23.6484 13.9583 23.6484 14.8906V19H21.2656V10.2656H23.0859L23.4062 11.3828H23.5391C23.7266 11.0807 23.9583 10.8359 24.2344 10.6484C24.5156 10.4609 24.8255 10.3229 25.1641 10.2344C25.5078 10.1458 25.862 10.1016 26.2266 10.1016ZM68.3047 17.8828C68.3047 17.3932 68.4375 17.0495 68.7031 16.8516C68.974 16.6536 69.2995 16.5547 69.6797 16.5547C70.0495 16.5547 70.3672 16.6536 70.6328 16.8516C70.9036 17.0495 71.0391 17.3932 71.0391 17.8828C71.0391 18.3516 70.9036 18.6901 70.6328 18.8984C70.3672 19.1068 70.0495 19.2109 69.6797 19.2109C69.2995 19.2109 68.974 19.1068 68.7031 18.8984C68.4375 18.6901 68.3047 18.3516 68.3047 17.8828ZM76.7812 10.0859C77.9531 10.0859 78.8516 10.3411 79.4766 10.8516C80.1016 11.362 80.4141 12.138 80.4141 13.1797V19H78.75L78.2891 17.8125H78.2266C77.9766 18.125 77.7214 18.3802 77.4609 18.5781C77.2005 18.776 76.901 18.9219 76.5625 19.0156C76.224 19.1094 75.8125 19.1562 75.3281 19.1562C74.8125 19.1562 74.349 19.0573 73.9375 18.8594C73.5312 18.6615 73.2109 18.3594 72.9766 17.9531C72.7422 17.5417 72.625 17.0208 72.625 16.3906C72.625 15.4635 72.9505 14.7812 73.6016 14.3438C74.2526 13.901 75.2292 13.6562 76.5312 13.6094L78.0469 13.5625V13.1797C78.0469 12.7214 77.9271 12.3854 77.6875 12.1719C77.4479 11.9583 77.1146 11.8516 76.6875 11.8516C76.2656 11.8516 75.8516 11.9115 75.4453 12.0312C75.0391 12.151 74.6328 12.3021 74.2266 12.4844L73.4375 10.875C73.901 10.6302 74.4193 10.4375 74.9922 10.2969C75.5703 10.1562 76.1667 10.0859 76.7812 10.0859ZM78.0469 14.9531L77.125 14.9844C76.3542 15.0052 75.8177 15.1432 75.5156 15.3984C75.2188 15.6536 75.0703 15.9896 75.0703 16.4062C75.0703 16.7708 75.1771 17.0312 75.3906 17.1875C75.6042 17.3385 75.8828 17.4141 76.2266 17.4141C76.737 17.4141 77.1667 17.263 77.5156 16.9609C77.8698 16.6589 78.0469 16.2292 78.0469 15.6719V14.9531ZM87.7344 10.1016C88.7188 10.1016 89.513 10.4844 90.1172 11.25C90.7266 12.0156 91.0312 13.138 91.0312 14.6172C91.0312 15.6068 90.888 16.4401 90.6016 17.1172C90.3151 17.7891 89.9193 18.2969 89.4141 18.6406C88.9089 18.9844 88.3281 19.1562 87.6719 19.1562C87.25 19.1562 86.888 19.1042 86.5859 19C86.2839 18.8906 86.026 18.7526 85.8125 18.5859C85.599 18.4141 85.4141 18.2318 85.2578 18.0391H85.1328C85.1745 18.2474 85.2057 18.4609 85.2266 18.6797C85.2474 18.8984 85.2578 19.112 85.2578 19.3203V22.8438H82.875V10.2656H84.8125L85.1484 11.3984H85.2578C85.4141 11.1641 85.6042 10.9479 85.8281 10.75C86.0521 10.5521 86.3203 10.3958 86.6328 10.2812C86.9505 10.1615 87.3177 10.1016 87.7344 10.1016ZM86.9688 12.0078C86.5521 12.0078 86.2214 12.0938 85.9766 12.2656C85.7318 12.4375 85.5521 12.6953 85.4375 13.0391C85.3281 13.3828 85.2682 13.8177 85.2578 14.3438V14.6016C85.2578 15.1641 85.3099 15.6406 85.4141 16.0312C85.5234 16.4219 85.7031 16.7188 85.9531 16.9219C86.2083 17.125 86.5573 17.2266 87 17.2266C87.3646 17.2266 87.6641 17.125 87.8984 16.9219C88.1328 16.7188 88.3073 16.4219 88.4219 16.0312C88.5417 15.6354 88.6016 15.1536 88.6016 14.5859C88.6016 13.7318 88.4688 13.0885 88.2031 12.6562C87.9375 12.224 87.526 12.0078 86.9688 12.0078ZM97.8594 10.1016C98.8438 10.1016 99.638 10.4844 100.242 11.25C100.852 12.0156 101.156 13.138 101.156 14.6172C101.156 15.6068 101.013 16.4401 100.727 17.1172C100.44 17.7891 100.044 18.2969 99.5391 18.6406C99.0339 18.9844 98.4531 19.1562 97.7969 19.1562C97.375 19.1562 97.013 19.1042 96.7109 19C96.4089 18.8906 96.151 18.7526 95.9375 18.5859C95.724 18.4141 95.5391 18.2318 95.3828 18.0391H95.2578C95.2995 18.2474 95.3307 18.4609 95.3516 18.6797C95.3724 18.8984 95.3828 19.112 95.3828 19.3203V22.8438H93V10.2656H94.9375L95.2734 11.3984H95.3828C95.5391 11.1641 95.7292 10.9479 95.9531 10.75C96.1771 10.5521 96.4453 10.3958 96.7578 10.2812C97.0755 10.1615 97.4427 10.1016 97.8594 10.1016ZM97.0938 12.0078C96.6771 12.0078 96.3464 12.0938 96.1016 12.2656C95.8568 12.4375 95.6771 12.6953 95.5625 13.0391C95.4531 13.3828 95.3932 13.8177 95.3828 14.3438V14.6016C95.3828 15.1641 95.4349 15.6406 95.5391 16.0312C95.6484 16.4219 95.8281 16.7188 96.0781 16.9219C96.3333 17.125 96.6823 17.2266 97.125 17.2266C97.4896 17.2266 97.7891 17.125 98.0234 16.9219C98.2578 16.7188 98.4323 16.4219 98.5469 16.0312C98.6667 15.6354 98.7266 15.1536 98.7266 14.5859C98.7266 13.7318 98.5938 13.0885 98.3281 12.6562C98.0625 12.224 97.651 12.0078 97.0938 12.0078Z" fill="white"/>
<path d="M34.5469 19.1562C33.5729 19.1562 32.7786 18.776 32.1641 18.0156C31.5547 17.25 31.25 16.1276 31.25 14.6484C31.25 13.1536 31.5599 12.0234 32.1797 11.2578C32.7995 10.487 33.6094 10.1016 34.6094 10.1016C35.026 10.1016 35.3932 10.1589 35.7109 10.2734C36.0286 10.388 36.3021 10.5417 36.5312 10.7344C36.7656 10.9271 36.9635 11.1432 37.125 11.3828H37.2031C37.1719 11.2161 37.1328 10.9714 37.0859 10.6484C37.0443 10.3203 37.0234 9.98438 37.0234 9.64062V6.84375H39.4141V19H37.5859L37.125 17.8672H37.0234C36.8724 18.1068 36.6823 18.3255 36.4531 18.5234C36.2292 18.7161 35.9609 18.8698 35.6484 18.9844C35.3359 19.099 34.9688 19.1562 34.5469 19.1562ZM35.3828 17.2578C36.0339 17.2578 36.4922 17.0651 36.7578 16.6797C37.0286 16.2891 37.1719 15.7031 37.1875 14.9219V14.6641C37.1875 13.8151 37.0573 13.1667 36.7969 12.7188C36.5365 12.2656 36.0521 12.0391 35.3438 12.0391C34.8177 12.0391 34.4062 12.2656 34.1094 12.7188C33.8125 13.1719 33.6641 13.8255 33.6641 14.6797C33.6641 15.5339 33.8125 16.1771 34.1094 16.6094C34.4115 17.0417 34.8359 17.2578 35.3828 17.2578ZM45.4844 10.0859C46.6562 10.0859 47.5547 10.3411 48.1797 10.8516C48.8047 11.362 49.1172 12.138 49.1172 13.1797V19H47.4531L46.9922 17.8125H46.9297C46.6797 18.125 46.4245 18.3802 46.1641 18.5781C45.9036 18.776 45.6042 18.9219 45.2656 19.0156C44.9271 19.1094 44.5156 19.1562 44.0312 19.1562C43.5156 19.1562 43.0521 19.0573 42.6406 18.8594C42.2344 18.6615 41.9141 18.3594 41.6797 17.9531C41.4453 17.5417 41.3281 17.0208 41.3281 16.3906C41.3281 15.4635 41.6536 14.7812 42.3047 14.3438C42.9557 13.901 43.9323 13.6562 45.2344 13.6094L46.75 13.5625V13.1797C46.75 12.7214 46.6302 12.3854 46.3906 12.1719C46.151 11.9583 45.8177 11.8516 45.3906 11.8516C44.9688 11.8516 44.5547 11.9115 44.1484 12.0312C43.7422 12.151 43.3359 12.3021 42.9297 12.4844L42.1406 10.875C42.6042 10.6302 43.1224 10.4375 43.6953 10.2969C44.2734 10.1562 44.8698 10.0859 45.4844 10.0859ZM46.75 14.9531L45.8281 14.9844C45.0573 15.0052 44.5208 15.1432 44.2188 15.3984C43.9219 15.6536 43.7734 15.9896 43.7734 16.4062C43.7734 16.7708 43.8802 17.0312 44.0938 17.1875C44.3073 17.3385 44.5859 17.4141 44.9297 17.4141C45.4401 17.4141 45.8698 17.263 46.2188 16.9609C46.5729 16.6589 46.75 16.2292 46.75 15.6719V14.9531ZM50.3281 10.2656H52.9375L54.5859 15.1797C54.638 15.3359 54.6823 15.4948 54.7188 15.6562C54.7552 15.8177 54.7865 15.9844 54.8125 16.1562C54.8385 16.3281 54.8594 16.5078 54.875 16.6953H54.9219C54.9531 16.4141 54.9948 16.151 55.0469 15.9062C55.1042 15.6615 55.1745 15.4193 55.2578 15.1797L56.875 10.2656H59.4297L55.7344 20.1172C55.5104 20.7214 55.2188 21.224 54.8594 21.625C54.5 22.0312 54.0859 22.3359 53.6172 22.5391C53.1536 22.7422 52.6432 22.8438 52.0859 22.8438C51.8151 22.8438 51.5807 22.8281 51.3828 22.7969C51.1849 22.7708 51.0156 22.7422 50.875 22.7109V20.8203C50.9844 20.8464 51.1224 20.8698 51.2891 20.8906C51.4557 20.9115 51.6302 20.9219 51.8125 20.9219C52.1458 20.9219 52.4323 20.8516 52.6719 20.7109C52.9115 20.5703 53.112 20.3802 53.2734 20.1406C53.4349 19.9062 53.5625 19.6484 53.6562 19.3672L53.7969 18.9375L50.3281 10.2656ZM66.7812 16.4062C66.7812 17 66.6406 17.5026 66.3594 17.9141C66.0833 18.3203 65.6693 18.6302 65.1172 18.8438C64.5651 19.0521 63.8776 19.1562 63.0547 19.1562C62.4453 19.1562 61.9219 19.1172 61.4844 19.0391C61.0521 18.9609 60.6146 18.8307 60.1719 18.6484V16.6797C60.6458 16.8932 61.1536 17.0703 61.6953 17.2109C62.2422 17.3464 62.7214 17.4141 63.1328 17.4141C63.5964 17.4141 63.9271 17.3464 64.125 17.2109C64.3281 17.0703 64.4297 16.888 64.4297 16.6641C64.4297 16.5182 64.388 16.388 64.3047 16.2734C64.2266 16.1536 64.0547 16.0208 63.7891 15.875C63.5234 15.724 63.1068 15.5286 62.5391 15.2891C61.9922 15.0599 61.5417 14.8281 61.1875 14.5938C60.8385 14.3594 60.5781 14.0833 60.4062 13.7656C60.2396 13.4427 60.1562 13.0339 60.1562 12.5391C60.1562 11.7318 60.4688 11.125 61.0938 10.7188C61.724 10.3073 62.5651 10.1016 63.6172 10.1016C64.1589 10.1016 64.6745 10.1562 65.1641 10.2656C65.6589 10.375 66.1667 10.5495 66.6875 10.7891L65.9688 12.5078C65.5365 12.3203 65.1276 12.1667 64.7422 12.0469C64.362 11.9271 63.974 11.8672 63.5781 11.8672C63.2292 11.8672 62.9661 11.9141 62.7891 12.0078C62.612 12.1016 62.5234 12.2448 62.5234 12.4375C62.5234 12.5781 62.5677 12.7031 62.6562 12.8125C62.75 12.9219 62.9271 13.0443 63.1875 13.1797C63.4531 13.3099 63.8411 13.4792 64.3516 13.6875C64.8464 13.8906 65.276 14.1042 65.6406 14.3281C66.0052 14.5469 66.2865 14.8203 66.4844 15.1484C66.6823 15.4714 66.7812 15.8906 66.7812 16.4062Z" fill="#32FFAA"/>
</svg>
